<svg width="350" height="140" viewBox="0 0 350 140" fill="none" xmlns="http://www.w3.org/2000/svg">
<rect width="350" height="140" fill="#1E1E1E"/>
<path d="M270.6 97.15C270.027 97.15 269.522 97.0333 269.085 96.8C268.652 96.5667 268.312 96.2383 268.065 95.815C267.822 95.3917 267.7 94.895 267.7 94.325V89.81L268.92 89.8V94.295C268.92 94.565 268.965 94.8067 269.055 95.02C269.148 95.2333 269.273 95.415 269.43 95.565C269.587 95.7117 269.767 95.8233 269.97 95.9C270.173 95.9767 270.383 96.015 270.6 96.015C270.823 96.015 271.035 95.9767 271.235 95.9C271.438 95.82 271.618 95.7067 271.775 95.56C271.932 95.41 272.055 95.2283 272.145 95.015C272.235 94.8017 272.28 94.5617 272.28 94.295V89.8H273.5V94.325C273.5 94.895 273.377 95.3917 273.13 95.815C272.887 96.2383 272.547 96.5667 272.11 96.8C271.677 97.0333 271.173 97.15 270.6 97.15ZM274.297 97L276.737 93.36L274.367 89.8H275.842L277.482 92.335L279.107 89.8H280.592L278.222 93.36L280.652 97H279.177L277.482 94.385L275.782 97H274.297ZM283.67 89.8H284.88L282.96 97H281.75L283.67 89.8ZM289.077 97.15C288.503 97.15 287.998 97.0333 287.562 96.8C287.128 96.5667 286.788 96.2383 286.542 95.815C286.298 95.3917 286.177 94.895 286.177 94.325V89.81L287.397 89.8V94.295C287.397 94.565 287.442 94.8067 287.532 95.02C287.625 95.2333 287.75 95.415 287.907 95.565C288.063 95.7117 288.243 95.8233 288.447 95.9C288.65 95.9767 288.86 96.015 289.077 96.015C289.3 96.015 289.512 95.9767 289.712 95.9C289.915 95.82 290.095 95.7067 290.252 95.56C290.408 95.41 290.532 95.2283 290.622 95.015C290.712 94.8017 290.757 94.5617 290.757 94.295V89.8H291.977V94.325C291.977 94.895 291.853 95.3917 291.607 95.815C291.363 96.2383 291.023 96.5667 290.587 96.8C290.153 97.0333 289.65 97.15 289.077 97.15ZM293.474 97V89.8H294.679V97H293.474ZM298.179 97V89.8H300.474C300.534 89.8 300.652 89.8017 300.829 89.805C301.009 89.8083 301.182 89.82 301.349 89.84C301.919 89.9133 302.4 90.1167 302.794 90.45C303.19 90.78 303.49 91.2017 303.694 91.715C303.897 92.2283 303.999 92.79 303.999 93.4C303.999 94.01 303.897 94.5717 303.694 95.085C303.49 95.5983 303.19 96.0217 302.794 96.355C302.4 96.685 301.919 96.8867 301.349 96.96C301.185 96.98 301.014 96.9917 300.834 96.995C300.654 96.9983 300.534 97 300.474 97H298.179ZM299.404 95.865H300.474C300.574 95.865 300.7 95.8617 300.854 95.855C301.01 95.8483 301.149 95.8333 301.269 95.81C301.609 95.7467 301.885 95.595 302.099 95.355C302.312 95.115 302.469 94.8233 302.569 94.48C302.672 94.1367 302.724 93.7767 302.724 93.4C302.724 93.01 302.672 92.6433 302.569 92.3C302.465 91.9567 302.305 91.6683 302.089 91.435C301.875 91.2017 301.602 91.0533 301.269 90.99C301.149 90.9633 301.01 90.9483 300.854 90.945C300.7 90.9383 300.574 90.935 300.474 90.935H299.404V95.865ZM307.635 97.15C307.089 97.15 306.609 97.0317 306.195 96.795C305.782 96.5583 305.459 96.23 305.225 95.81C304.995 95.39 304.88 94.9067 304.88 94.36C304.88 93.77 304.994 93.2583 305.22 92.825C305.447 92.3883 305.762 92.05 306.165 91.81C306.569 91.57 307.035 91.45 307.565 91.45C308.125 91.45 308.6 91.5817 308.99 91.845C309.384 92.105 309.675 92.4733 309.865 92.95C310.055 93.4267 310.127 93.9883 310.08 94.635H308.885V94.195C308.882 93.6083 308.779 93.18 308.575 92.91C308.372 92.64 308.052 92.505 307.615 92.505C307.122 92.505 306.755 92.6583 306.515 92.965C306.275 93.2683 306.155 93.7133 306.155 94.3C306.155 94.8467 306.275 95.27 306.515 95.57C306.755 95.87 307.105 96.02 307.565 96.02C307.862 96.02 308.117 95.955 308.33 95.825C308.547 95.6917 308.714 95.5 308.83 95.25L310.02 95.61C309.814 96.0967 309.494 96.475 309.06 96.745C308.63 97.015 308.155 97.15 307.635 97.15ZM305.775 94.635V93.725H309.49V94.635H305.775ZM313.281 97.15C312.614 97.15 312.073 97 311.656 96.7C311.239 96.4 310.986 95.9783 310.896 95.435L312.126 95.245C312.189 95.5117 312.329 95.7217 312.546 95.875C312.763 96.0283 313.036 96.105 313.366 96.105C313.656 96.105 313.879 96.0483 314.036 95.935C314.196 95.8183 314.276 95.66 314.276 95.46C314.276 95.3367 314.246 95.2383 314.186 95.165C314.129 95.0883 314.003 95.015 313.806 94.945C313.609 94.875 313.308 94.7867 312.901 94.68C312.448 94.56 312.088 94.4317 311.821 94.295C311.554 94.155 311.363 93.99 311.246 93.8C311.129 93.61 311.071 93.38 311.071 93.11C311.071 92.7733 311.159 92.48 311.336 92.23C311.513 91.98 311.759 91.7883 312.076 91.655C312.393 91.5183 312.766 91.45 313.196 91.45C313.616 91.45 313.988 91.515 314.311 91.645C314.638 91.775 314.901 91.96 315.101 92.2C315.301 92.44 315.424 92.7217 315.471 93.045L314.241 93.265C314.211 93.035 314.106 92.8533 313.926 92.72C313.749 92.5867 313.513 92.5117 313.216 92.495C312.933 92.4783 312.704 92.5217 312.531 92.625C312.358 92.725 312.271 92.8667 312.271 93.05C312.271 93.1533 312.306 93.2417 312.376 93.315C312.446 93.3883 312.586 93.4617 312.796 93.535C313.009 93.6083 313.326 93.6983 313.746 93.805C314.176 93.915 314.519 94.0417 314.776 94.185C315.036 94.325 315.223 94.4933 315.336 94.69C315.453 94.8867 315.511 95.125 315.511 95.405C315.511 95.9483 315.313 96.375 314.916 96.685C314.523 96.995 313.978 97.15 313.281 97.15ZM316.706 90.78V89.675H317.911V90.78H316.706ZM316.706 97V91.6H317.911V97H316.706ZM321.679 99.55C321.379 99.55 321.091 99.5033 320.814 99.41C320.541 99.3167 320.294 99.1817 320.074 99.005C319.854 98.8317 319.674 98.6217 319.534 98.375L320.644 97.825C320.747 98.0217 320.892 98.1667 321.079 98.26C321.269 98.3567 321.471 98.405 321.684 98.405C321.934 98.405 322.157 98.36 322.354 98.27C322.551 98.1833 322.702 98.0533 322.809 97.88C322.919 97.71 322.971 97.4967 322.964 97.24V95.705H323.114V91.6H324.169V97.26C324.169 97.3967 324.162 97.5267 324.149 97.65C324.139 97.7767 324.121 97.9 324.094 98.02C324.014 98.37 323.861 98.6567 323.634 98.88C323.407 99.1067 323.126 99.275 322.789 99.385C322.456 99.495 322.086 99.55 321.679 99.55ZM321.574 97.15C321.077 97.15 320.644 97.025 320.274 96.775C319.904 96.525 319.617 96.185 319.414 95.755C319.211 95.325 319.109 94.84 319.109 94.3C319.109 93.7533 319.211 93.2667 319.414 92.84C319.621 92.41 319.912 92.0717 320.289 91.825C320.666 91.575 321.109 91.45 321.619 91.45C322.132 91.45 322.562 91.575 322.909 91.825C323.259 92.0717 323.524 92.41 323.704 92.84C323.884 93.27 323.974 93.7567 323.974 94.3C323.974 94.8367 323.884 95.3217 323.704 95.755C323.524 96.185 323.256 96.525 322.899 96.775C322.542 97.025 322.101 97.15 321.574 97.15ZM321.759 96.07C322.082 96.07 322.342 95.9967 322.539 95.85C322.739 95.7 322.884 95.4917 322.974 95.225C323.067 94.9583 323.114 94.65 323.114 94.3C323.114 93.9467 323.067 93.6383 322.974 93.375C322.884 93.1083 322.742 92.9017 322.549 92.755C322.356 92.605 322.106 92.53 321.799 92.53C321.476 92.53 321.209 92.61 320.999 92.77C320.789 92.9267 320.634 93.14 320.534 93.41C320.434 93.6767 320.384 93.9733 320.384 94.3C320.384 94.63 320.432 94.93 320.529 95.2C320.629 95.4667 320.781 95.6783 320.984 95.835C321.187 95.9917 321.446 96.07 321.759 96.07ZM329.306 97V94.4C329.306 94.23 329.294 94.0417 329.271 93.835C329.248 93.6283 329.193 93.43 329.106 93.24C329.023 93.0467 328.896 92.8883 328.726 92.765C328.559 92.6417 328.333 92.58 328.046 92.58C327.893 92.58 327.741 92.605 327.591 92.655C327.441 92.705 327.304 92.7917 327.181 92.915C327.061 93.035 326.964 93.2017 326.891 93.415C326.818 93.625 326.781 93.895 326.781 94.225L326.066 93.92C326.066 93.46 326.154 93.0433 326.331 92.67C326.511 92.2967 326.774 92 327.121 91.78C327.468 91.5567 327.894 91.445 328.401 91.445C328.801 91.445 329.131 91.5117 329.391 91.645C329.651 91.7783 329.858 91.9483 330.011 92.155C330.164 92.3617 330.278 92.5817 330.351 92.815C330.424 93.0483 330.471 93.27 330.491 93.48C330.514 93.6867 330.526 93.855 330.526 93.985V97H329.306ZM325.561 97V91.6H326.636V93.275H326.781V97H325.561ZM334.198 97.15C333.651 97.15 333.171 97.0317 332.758 96.795C332.345 96.5583 332.021 96.23 331.788 95.81C331.558 95.39 331.443 94.9067 331.443 94.36C331.443 93.77 331.556 93.2583 331.783 92.825C332.01 92.3883 332.325 92.05 332.728 91.81C333.131 91.57 333.598 91.45 334.128 91.45C334.688 91.45 335.163 91.5817 335.553 91.845C335.946 92.105 336.238 92.4733 336.428 92.95C336.618 93.4267 336.69 93.9883 336.643 94.635H335.448V94.195C335.445 93.6083 335.341 93.18 335.138 92.91C334.935 92.64 334.615 92.505 334.178 92.505C333.685 92.505 333.318 92.6583 333.078 92.965C332.838 93.2683 332.718 93.7133 332.718 94.3C332.718 94.8467 332.838 95.27 333.078 95.57C333.318 95.87 333.668 96.02 334.128 96.02C334.425 96.02 334.68 95.955 334.893 95.825C335.11 95.6917 335.276 95.5 335.393 95.25L336.583 95.61C336.376 96.0967 336.056 96.475 335.623 96.745C335.193 97.015 334.718 97.15 334.198 97.15ZM332.338 94.635V93.725H336.053V94.635H332.338ZM337.759 97V91.6H338.824V92.915L338.694 92.745C338.76 92.565 338.849 92.4017 338.959 92.255C339.072 92.105 339.207 91.9817 339.364 91.885C339.497 91.795 339.644 91.725 339.804 91.675C339.967 91.6217 340.134 91.59 340.304 91.58C340.474 91.5667 340.639 91.5733 340.799 91.6V92.725C340.639 92.6783 340.454 92.6633 340.244 92.68C340.037 92.6967 339.85 92.755 339.684 92.855C339.517 92.945 339.38 93.06 339.274 93.2C339.17 93.34 339.094 93.5 339.044 93.68C338.994 93.8567 338.969 94.0483 338.969 94.255V97H337.759Z" fill="#F5F3EF"/>
<path d="M257.7 113V105.8H260.675C260.745 105.8 260.835 105.803 260.945 105.81C261.055 105.813 261.157 105.823 261.25 105.84C261.667 105.903 262.01 106.042 262.28 106.255C262.553 106.468 262.755 106.738 262.885 107.065C263.018 107.388 263.085 107.748 263.085 108.145C263.085 108.538 263.018 108.898 262.885 109.225C262.752 109.548 262.548 109.817 262.275 110.03C262.005 110.243 261.663 110.382 261.25 110.445C261.157 110.458 261.053 110.468 260.94 110.475C260.83 110.482 260.742 110.485 260.675 110.485H258.905V113H257.7ZM258.905 109.36H260.625C260.692 109.36 260.767 109.357 260.85 109.35C260.933 109.343 261.01 109.33 261.08 109.31C261.28 109.26 261.437 109.172 261.55 109.045C261.667 108.918 261.748 108.775 261.795 108.615C261.845 108.455 261.87 108.298 261.87 108.145C261.87 107.992 261.845 107.835 261.795 107.675C261.748 107.512 261.667 107.367 261.55 107.24C261.437 107.113 261.28 107.025 261.08 106.975C261.01 106.955 260.933 106.943 260.85 106.94C260.767 106.933 260.692 106.93 260.625 106.93H258.905V109.36ZM264.087 113V107.6H265.152V108.915L265.022 108.745C265.088 108.565 265.177 108.402 265.287 108.255C265.4 108.105 265.535 107.982 265.692 107.885C265.825 107.795 265.972 107.725 266.132 107.675C266.295 107.622 266.462 107.59 266.632 107.58C266.802 107.567 266.967 107.573 267.127 107.6V108.725C266.967 108.678 266.782 108.663 266.572 108.68C266.365 108.697 266.178 108.755 266.012 108.855C265.845 108.945 265.708 109.06 265.602 109.2C265.498 109.34 265.422 109.5 265.372 109.68C265.322 109.857 265.297 110.048 265.297 110.255V113H264.087ZM270.368 113.15C269.828 113.15 269.357 113.028 268.953 112.785C268.55 112.542 268.237 112.207 268.013 111.78C267.793 111.35 267.683 110.857 267.683 110.3C267.683 109.733 267.797 109.237 268.023 108.81C268.25 108.383 268.565 108.05 268.968 107.81C269.372 107.57 269.838 107.45 270.368 107.45C270.912 107.45 271.385 107.572 271.788 107.815C272.192 108.058 272.505 108.395 272.728 108.825C272.952 109.252 273.063 109.743 273.063 110.3C273.063 110.86 272.95 111.355 272.723 111.785C272.5 112.212 272.187 112.547 271.783 112.79C271.38 113.03 270.908 113.15 270.368 113.15ZM270.368 112.02C270.848 112.02 271.205 111.86 271.438 111.54C271.672 111.22 271.788 110.807 271.788 110.3C271.788 109.777 271.67 109.36 271.433 109.05C271.197 108.737 270.842 108.58 270.368 108.58C270.045 108.58 269.778 108.653 269.568 108.8C269.362 108.943 269.208 109.145 269.108 109.405C269.008 109.662 268.958 109.96 268.958 110.3C268.958 110.823 269.077 111.242 269.313 111.555C269.553 111.865 269.905 112.02 270.368 112.02ZM276.33 113.15C275.833 113.15 275.4 113.025 275.03 112.775C274.66 112.525 274.373 112.185 274.17 111.755C273.967 111.325 273.865 110.84 273.865 110.3C273.865 109.753 273.967 109.267 274.17 108.84C274.377 108.41 274.668 108.072 275.045 107.825C275.422 107.575 275.865 107.45 276.375 107.45C276.888 107.45 277.318 107.575 277.665 107.825C278.015 108.072 278.28 108.41 278.46 108.84C278.64 109.27 278.73 109.757 278.73 110.3C278.73 110.837 278.64 111.322 278.46 111.755C278.28 112.185 278.012 112.525 277.655 112.775C277.298 113.025 276.857 113.15 276.33 113.15ZM276.515 112.07C276.838 112.07 277.098 111.997 277.295 111.85C277.495 111.7 277.64 111.492 277.73 111.225C277.823 110.958 277.87 110.65 277.87 110.3C277.87 109.947 277.823 109.638 277.73 109.375C277.64 109.108 277.498 108.902 277.305 108.755C277.112 108.605 276.862 108.53 276.555 108.53C276.232 108.53 275.965 108.61 275.755 108.77C275.545 108.927 275.39 109.14 275.29 109.41C275.19 109.677 275.14 109.973 275.14 110.3C275.14 110.63 275.188 110.93 275.285 111.2C275.385 111.467 275.537 111.678 275.74 111.835C275.943 111.992 276.202 112.07 276.515 112.07ZM277.87 113V109.21H277.72V105.8H278.935V113H277.87ZM282.362 113.155C281.962 113.155 281.632 113.088 281.372 112.955C281.112 112.822 280.905 112.652 280.752 112.445C280.598 112.238 280.485 112.018 280.412 111.785C280.338 111.552 280.29 111.332 280.267 111.125C280.247 110.915 280.237 110.745 280.237 110.615V107.6H281.457V110.2C281.457 110.367 281.468 110.555 281.492 110.765C281.515 110.972 281.568 111.172 281.652 111.365C281.738 111.555 281.865 111.712 282.032 111.835C282.202 111.958 282.43 112.02 282.717 112.02C282.87 112.02 283.022 111.995 283.172 111.945C283.322 111.895 283.457 111.81 283.577 111.69C283.7 111.567 283.798 111.398 283.872 111.185C283.945 110.972 283.982 110.702 283.982 110.375L284.697 110.68C284.697 111.14 284.607 111.557 284.427 111.93C284.25 112.303 283.988 112.602 283.642 112.825C283.295 113.045 282.868 113.155 282.362 113.155ZM284.127 113V111.325H283.982V107.6H285.192V113H284.127ZM288.941 113.15C288.385 113.15 287.91 113.027 287.516 112.78C287.123 112.53 286.821 112.19 286.611 111.76C286.405 111.33 286.3 110.843 286.296 110.3C286.3 109.747 286.408 109.257 286.621 108.83C286.838 108.4 287.145 108.063 287.541 107.82C287.938 107.573 288.41 107.45 288.956 107.45C289.57 107.45 290.088 107.605 290.511 107.915C290.938 108.222 291.216 108.642 291.346 109.175L290.146 109.5C290.053 109.21 289.898 108.985 289.681 108.825C289.465 108.662 289.218 108.58 288.941 108.58C288.628 108.58 288.37 108.655 288.166 108.805C287.963 108.952 287.813 109.155 287.716 109.415C287.62 109.675 287.571 109.97 287.571 110.3C287.571 110.813 287.686 111.228 287.916 111.545C288.146 111.862 288.488 112.02 288.941 112.02C289.261 112.02 289.513 111.947 289.696 111.8C289.883 111.653 290.023 111.442 290.116 111.165L291.346 111.44C291.18 111.99 290.888 112.413 290.471 112.71C290.055 113.003 289.545 113.15 288.941 113.15ZM295.513 113C295.157 113.067 294.807 113.095 294.463 113.085C294.123 113.078 293.818 113.017 293.548 112.9C293.278 112.78 293.073 112.592 292.933 112.335C292.81 112.102 292.745 111.863 292.738 111.62C292.732 111.377 292.728 111.102 292.728 110.795V106.1H293.928V110.725C293.928 110.942 293.93 111.132 293.933 111.295C293.94 111.458 293.975 111.592 294.038 111.695C294.158 111.895 294.35 112.007 294.613 112.03C294.877 112.053 295.177 112.04 295.513 111.99V113ZM291.748 108.545V107.6H295.513V108.545H291.748ZM298.677 113V105.8H300.972C301.032 105.8 301.15 105.802 301.327 105.805C301.507 105.808 301.68 105.82 301.847 105.84C302.417 105.913 302.898 106.117 303.292 106.45C303.688 106.78 303.988 107.202 304.192 107.715C304.395 108.228 304.497 108.79 304.497 109.4C304.497 110.01 304.395 110.572 304.192 111.085C303.988 111.598 303.688 112.022 303.292 112.355C302.898 112.685 302.417 112.887 301.847 112.96C301.683 112.98 301.512 112.992 301.332 112.995C301.152 112.998 301.032 113 300.972 113H298.677ZM299.902 111.865H300.972C301.072 111.865 301.198 111.862 301.352 111.855C301.508 111.848 301.647 111.833 301.767 111.81C302.107 111.747 302.383 111.595 302.597 111.355C302.81 111.115 302.967 110.823 303.067 110.48C303.17 110.137 303.222 109.777 303.222 109.4C303.222 109.01 303.17 108.643 303.067 108.3C302.963 107.957 302.803 107.668 302.587 107.435C302.373 107.202 302.1 107.053 301.767 106.99C301.647 106.963 301.508 106.948 301.352 106.945C301.198 106.938 301.072 106.935 300.972 106.935H299.902V111.865ZM308.134 113.15C307.587 113.15 307.107 113.032 306.694 112.795C306.28 112.558 305.957 112.23 305.724 111.81C305.494 111.39 305.379 110.907 305.379 110.36C305.379 109.77 305.492 109.258 305.719 108.825C305.945 108.388 306.26 108.05 306.664 107.81C307.067 107.57 307.534 107.45 308.064 107.45C308.624 107.45 309.099 107.582 309.489 107.845C309.882 108.105 310.174 108.473 310.364 108.95C310.554 109.427 310.625 109.988 310.579 110.635H309.384V110.195C309.38 109.608 309.277 109.18 309.074 108.91C308.87 108.64 308.55 108.505 308.114 108.505C307.62 108.505 307.254 108.658 307.014 108.965C306.774 109.268 306.654 109.713 306.654 110.3C306.654 110.847 306.774 111.27 307.014 111.57C307.254 111.87 307.604 112.02 308.064 112.02C308.36 112.02 308.615 111.955 308.829 111.825C309.045 111.692 309.212 111.5 309.329 111.25L310.519 111.61C310.312 112.097 309.992 112.475 309.559 112.745C309.129 113.015 308.654 113.15 308.134 113.15ZM306.274 110.635V109.725H309.989V110.635H306.274ZM313.779 113.15C313.112 113.15 312.571 113 312.154 112.7C311.737 112.4 311.484 111.978 311.394 111.435L312.624 111.245C312.687 111.512 312.827 111.722 313.044 111.875C313.261 112.028 313.534 112.105 313.864 112.105C314.154 112.105 314.377 112.048 314.534 111.935C314.694 111.818 314.774 111.66 314.774 111.46C314.774 111.337 314.744 111.238 314.684 111.165C314.627 111.088 314.501 111.015 314.304 110.945C314.107 110.875 313.806 110.787 313.399 110.68C312.946 110.56 312.586 110.432 312.319 110.295C312.052 110.155 311.861 109.99 311.744 109.8C311.627 109.61 311.569 109.38 311.569 109.11C311.569 108.773 311.657 108.48 311.834 108.23C312.011 107.98 312.257 107.788 312.574 107.655C312.891 107.518 313.264 107.45 313.694 107.45C314.114 107.45 314.486 107.515 314.809 107.645C315.136 107.775 315.399 107.96 315.599 108.2C315.799 108.44 315.922 108.722 315.969 109.045L314.739 109.265C314.709 109.035 314.604 108.853 314.424 108.72C314.247 108.587 314.011 108.512 313.714 108.495C313.431 108.478 313.202 108.522 313.029 108.625C312.856 108.725 312.769 108.867 312.769 109.05C312.769 109.153 312.804 109.242 312.874 109.315C312.944 109.388 313.084 109.462 313.294 109.535C313.507 109.608 313.824 109.698 314.244 109.805C314.674 109.915 315.017 110.042 315.274 110.185C315.534 110.325 315.721 110.493 315.834 110.69C315.951 110.887 316.009 111.125 316.009 111.405C316.009 111.948 315.811 112.375 315.414 112.685C315.021 112.995 314.476 113.15 313.779 113.15ZM317.204 106.78V105.675H318.409V106.78H317.204ZM317.204 113V107.6H318.409V113H317.204ZM322.177 115.55C321.877 115.55 321.589 115.503 321.312 115.41C321.039 115.317 320.792 115.182 320.572 115.005C320.352 114.832 320.172 114.622 320.032 114.375L321.142 113.825C321.245 114.022 321.39 114.167 321.577 114.26C321.767 114.357 321.969 114.405 322.182 114.405C322.432 114.405 322.655 114.36 322.852 114.27C323.049 114.183 323.2 114.053 323.307 113.88C323.417 113.71 323.469 113.497 323.462 113.24V111.705H323.612V107.6H324.667V113.26C324.667 113.397 324.66 113.527 324.647 113.65C324.637 113.777 324.619 113.9 324.592 114.02C324.512 114.37 324.359 114.657 324.132 114.88C323.905 115.107 323.624 115.275 323.287 115.385C322.954 115.495 322.584 115.55 322.177 115.55ZM322.072 113.15C321.575 113.15 321.142 113.025 320.772 112.775C320.402 112.525 320.115 112.185 319.912 111.755C319.709 111.325 319.607 110.84 319.607 110.3C319.607 109.753 319.709 109.267 319.912 108.84C320.119 108.41 320.41 108.072 320.787 107.825C321.164 107.575 321.607 107.45 322.117 107.45C322.63 107.45 323.06 107.575 323.407 107.825C323.757 108.072 324.022 108.41 324.202 108.84C324.382 109.27 324.472 109.757 324.472 110.3C324.472 110.837 324.382 111.322 324.202 111.755C324.022 112.185 323.754 112.525 323.397 112.775C323.04 113.025 322.599 113.15 322.072 113.15ZM322.257 112.07C322.58 112.07 322.84 111.997 323.037 111.85C323.237 111.7 323.382 111.492 323.472 111.225C323.565 110.958 323.612 110.65 323.612 110.3C323.612 109.947 323.565 109.638 323.472 109.375C323.382 109.108 323.24 108.902 323.047 108.755C322.854 108.605 322.604 108.53 322.297 108.53C321.974 108.53 321.707 108.61 321.497 108.77C321.287 108.927 321.132 109.14 321.032 109.41C320.932 109.677 320.882 109.973 320.882 110.3C320.882 110.63 320.93 110.93 321.027 111.2C321.127 111.467 321.279 111.678 321.482 111.835C321.685 111.992 321.944 112.07 322.257 112.07ZM329.804 113V110.4C329.804 110.23 329.792 110.042 329.769 109.835C329.746 109.628 329.691 109.43 329.604 109.24C329.521 109.047 329.394 108.888 329.224 108.765C329.057 108.642 328.831 108.58 328.544 108.58C328.391 108.58 328.239 108.605 328.089 108.655C327.939 108.705 327.802 108.792 327.679 108.915C327.559 109.035 327.462 109.202 327.389 109.415C327.316 109.625 327.279 109.895 327.279 110.225L326.564 109.92C326.564 109.46 326.652 109.043 326.829 108.67C327.009 108.297 327.272 108 327.619 107.78C327.966 107.557 328.392 107.445 328.899 107.445C329.299 107.445 329.629 107.512 329.889 107.645C330.149 107.778 330.356 107.948 330.509 108.155C330.662 108.362 330.776 108.582 330.849 108.815C330.922 109.048 330.969 109.27 330.989 109.48C331.012 109.687 331.024 109.855 331.024 109.985V113H329.804ZM326.059 113V107.6H327.134V109.275H327.279V113H326.059ZM334.696 113.15C334.149 113.15 333.669 113.032 333.256 112.795C332.843 112.558 332.519 112.23 332.286 111.81C332.056 111.39 331.941 110.907 331.941 110.36C331.941 109.77 332.054 109.258 332.281 108.825C332.508 108.388 332.823 108.05 333.226 107.81C333.629 107.57 334.096 107.45 334.626 107.45C335.186 107.45 335.661 107.582 336.051 107.845C336.444 108.105 336.736 108.473 336.926 108.95C337.116 109.427 337.188 109.988 337.141 110.635H335.946V110.195C335.943 109.608 335.839 109.18 335.636 108.91C335.433 108.64 335.113 108.505 334.676 108.505C334.183 108.505 333.816 108.658 333.576 108.965C333.336 109.268 333.216 109.713 333.216 110.3C333.216 110.847 333.336 111.27 333.576 111.57C333.816 111.87 334.166 112.02 334.626 112.02C334.923 112.02 335.178 111.955 335.391 111.825C335.608 111.692 335.774 111.5 335.891 111.25L337.081 111.61C336.874 112.097 336.554 112.475 336.121 112.745C335.691 113.015 335.216 113.15 334.696 113.15ZM332.836 110.635V109.725H336.551V110.635H332.836ZM338.257 113V107.6H339.322V108.915L339.192 108.745C339.258 108.565 339.347 108.402 339.457 108.255C339.57 108.105 339.705 107.982 339.862 107.885C339.995 107.795 340.142 107.725 340.302 107.675C340.465 107.622 340.632 107.59 340.802 107.58C340.972 107.567 341.137 107.573 341.297 107.6V108.725C341.137 108.678 340.952 108.663 340.742 108.68C340.535 108.697 340.348 108.755 340.182 108.855C340.015 108.945 339.878 109.06 339.772 109.2C339.668 109.34 339.592 109.5 339.542 109.68C339.492 109.857 339.467 110.048 339.467 110.255V113H338.257Z" fill="#F5F3EF"/>
<path d="M242.7 129V121.8H247.035V123.005H243.905V124.8H246.435V126H243.905V129H242.7ZM247.934 129V123.6H248.999V124.915L248.869 124.745C248.936 124.565 249.024 124.402 249.134 124.255C249.248 124.105 249.383 123.982 249.539 123.885C249.673 123.795 249.819 123.725 249.979 123.675C250.143 123.622 250.309 123.59 250.479 123.58C250.649 123.567 250.814 123.573 250.974 123.6V124.725C250.814 124.678 250.629 124.663 250.419 124.68C250.213 124.697 250.026 124.755 249.859 124.855C249.693 124.945 249.556 125.06 249.449 125.2C249.346 125.34 249.269 125.5 249.219 125.68C249.169 125.857 249.144 126.048 249.144 126.255V129H247.934ZM254.216 129.15C253.676 129.15 253.204 129.028 252.801 128.785C252.398 128.542 252.084 128.207 251.861 127.78C251.641 127.35 251.531 126.857 251.531 126.3C251.531 125.733 251.644 125.237 251.871 124.81C252.098 124.383 252.413 124.05 252.816 123.81C253.219 123.57 253.686 123.45 254.216 123.45C254.759 123.45 255.233 123.572 255.636 123.815C256.039 124.058 256.353 124.395 256.576 124.825C256.799 125.252 256.911 125.743 256.911 126.3C256.911 126.86 256.798 127.355 256.571 127.785C256.348 128.212 256.034 128.547 255.631 128.79C255.228 129.03 254.756 129.15 254.216 129.15ZM254.216 128.02C254.696 128.02 255.053 127.86 255.286 127.54C255.519 127.22 255.636 126.807 255.636 126.3C255.636 125.777 255.518 125.36 255.281 125.05C255.044 124.737 254.689 124.58 254.216 124.58C253.893 124.58 253.626 124.653 253.416 124.8C253.209 124.943 253.056 125.145 252.956 125.405C252.856 125.662 252.806 125.96 252.806 126.3C252.806 126.823 252.924 127.242 253.161 127.555C253.401 127.865 253.753 128.02 254.216 128.02ZM261.748 129V126.4C261.748 126.23 261.736 126.042 261.713 125.835C261.689 125.628 261.634 125.43 261.548 125.24C261.464 125.047 261.338 124.888 261.168 124.765C261.001 124.642 260.774 124.58 260.488 124.58C260.334 124.58 260.183 124.605 260.033 124.655C259.883 124.705 259.746 124.792 259.623 124.915C259.503 125.035 259.406 125.202 259.333 125.415C259.259 125.625 259.223 125.895 259.223 126.225L258.508 125.92C258.508 125.46 258.596 125.043 258.773 124.67C258.953 124.297 259.216 124 259.563 123.78C259.909 123.557 260.336 123.445 260.843 123.445C261.243 123.445 261.573 123.512 261.833 123.645C262.093 123.778 262.299 123.948 262.452 124.155C262.606 124.362 262.719 124.582 262.793 124.815C262.866 125.048 262.913 125.27 262.933 125.48C262.956 125.687 262.968 125.855 262.968 125.985V129H261.748ZM258.003 129V123.6H259.078V125.275H259.223V129H258.003ZM267.437 129C267.081 129.067 266.731 129.095 266.387 129.085C266.047 129.078 265.742 129.017 265.472 128.9C265.202 128.78 264.997 128.592 264.857 128.335C264.734 128.102 264.669 127.863 264.662 127.62C264.656 127.377 264.652 127.102 264.652 126.795V122.1H265.852V126.725C265.852 126.942 265.854 127.132 265.857 127.295C265.864 127.458 265.899 127.592 265.962 127.695C266.082 127.895 266.274 128.007 266.537 128.03C266.801 128.053 267.101 128.04 267.437 127.99V129ZM263.672 124.545V123.6H267.437V124.545H263.672ZM268.498 126.32V125.375H271.498V126.32H268.498ZM272.798 129V121.8H277.448V122.93H274.003V124.705H276.848V125.835H274.003V127.87H277.448V129H272.798ZM282.382 129V126.4C282.382 126.23 282.371 126.042 282.347 125.835C282.324 125.628 282.269 125.43 282.182 125.24C282.099 125.047 281.972 124.888 281.802 124.765C281.636 124.642 281.409 124.58 281.122 124.58C280.969 124.58 280.817 124.605 280.667 124.655C280.517 124.705 280.381 124.792 280.257 124.915C280.137 125.035 280.041 125.202 279.967 125.415C279.894 125.625 279.857 125.895 279.857 126.225L279.142 125.92C279.142 125.46 279.231 125.043 279.407 124.67C279.587 124.297 279.851 124 280.197 123.78C280.544 123.557 280.971 123.445 281.477 123.445C281.877 123.445 282.207 123.512 282.467 123.645C282.727 123.778 282.934 123.948 283.087 124.155C283.241 124.362 283.354 124.582 283.427 124.815C283.501 125.048 283.547 125.27 283.567 125.48C283.591 125.687 283.602 125.855 283.602 125.985V129H282.382ZM278.637 129V123.6H279.712V125.275H279.857V129H278.637ZM286.984 129.15C286.487 129.15 286.054 129.025 285.684 128.775C285.314 128.525 285.027 128.185 284.824 127.755C284.621 127.325 284.519 126.84 284.519 126.3C284.519 125.753 284.621 125.267 284.824 124.84C285.031 124.41 285.322 124.072 285.699 123.825C286.076 123.575 286.519 123.45 287.029 123.45C287.542 123.45 287.972 123.575 288.319 123.825C288.669 124.072 288.934 124.41 289.114 124.84C289.294 125.27 289.384 125.757 289.384 126.3C289.384 126.837 289.294 127.322 289.114 127.755C288.934 128.185 288.666 128.525 288.309 128.775C287.952 129.025 287.511 129.15 286.984 129.15ZM287.169 128.07C287.492 128.07 287.752 127.997 287.949 127.85C288.149 127.7 288.294 127.492 288.384 127.225C288.477 126.958 288.524 126.65 288.524 126.3C288.524 125.947 288.477 125.638 288.384 125.375C288.294 125.108 288.152 124.902 287.959 124.755C287.766 124.605 287.516 124.53 287.209 124.53C286.886 124.53 286.619 124.61 286.409 124.77C286.199 124.927 286.044 125.14 285.944 125.41C285.844 125.677 285.794 125.973 285.794 126.3C285.794 126.63 285.842 126.93 285.939 127.2C286.039 127.467 286.191 127.678 286.394 127.835C286.597 127.992 286.856 128.07 287.169 128.07ZM288.524 129V125.21H288.374V121.8H289.589V129H288.524ZM292.993 129V121.8H295.288C295.348 121.8 295.466 121.802 295.643 121.805C295.823 121.808 295.996 121.82 296.163 121.84C296.733 121.913 297.215 122.117 297.608 122.45C298.005 122.78 298.305 123.202 298.508 123.715C298.711 124.228 298.813 124.79 298.813 125.4C298.813 126.01 298.711 126.572 298.508 127.085C298.305 127.598 298.005 128.022 297.608 128.355C297.215 128.685 296.733 128.887 296.163 128.96C296 128.98 295.828 128.992 295.648 128.995C295.468 128.998 295.348 129 295.288 129H292.993ZM294.218 127.865H295.288C295.388 127.865 295.515 127.862 295.668 127.855C295.825 127.848 295.963 127.833 296.083 127.81C296.423 127.747 296.7 127.595 296.913 127.355C297.126 127.115 297.283 126.823 297.383 126.48C297.486 126.137 297.538 125.777 297.538 125.4C297.538 125.01 297.486 124.643 297.383 124.3C297.28 123.957 297.12 123.668 296.903 123.435C296.69 123.202 296.416 123.053 296.083 122.99C295.963 122.963 295.825 122.948 295.668 122.945C295.515 122.938 295.388 122.935 295.288 122.935H294.218V127.865ZM302.45 129.15C301.903 129.15 301.423 129.032 301.01 128.795C300.597 128.558 300.273 128.23 300.04 127.81C299.81 127.39 299.695 126.907 299.695 126.36C299.695 125.77 299.808 125.258 300.035 124.825C300.262 124.388 300.577 124.05 300.98 123.81C301.383 123.57 301.85 123.45 302.38 123.45C302.94 123.45 303.415 123.582 303.805 123.845C304.198 124.105 304.49 124.473 304.68 124.95C304.87 125.427 304.942 125.988 304.895 126.635H303.7V126.195C303.697 125.608 303.593 125.18 303.39 124.91C303.187 124.64 302.867 124.505 302.43 124.505C301.937 124.505 301.57 124.658 301.33 124.965C301.09 125.268 300.97 125.713 300.97 126.3C300.97 126.847 301.09 127.27 301.33 127.57C301.57 127.87 301.92 128.02 302.38 128.02C302.677 128.02 302.932 127.955 303.145 127.825C303.362 127.692 303.528 127.5 303.645 127.25L304.835 127.61C304.628 128.097 304.308 128.475 303.875 128.745C303.445 129.015 302.97 129.15 302.45 129.15ZM300.59 126.635V125.725H304.305V126.635H300.59ZM307.275 129L305.315 123.6H306.52L307.88 127.515L309.235 123.6H310.445L308.485 129H307.275ZM313.602 129.15C313.056 129.15 312.576 129.032 312.162 128.795C311.749 128.558 311.426 128.23 311.192 127.81C310.962 127.39 310.847 126.907 310.847 126.36C310.847 125.77 310.961 125.258 311.187 124.825C311.414 124.388 311.729 124.05 312.132 123.81C312.536 123.57 313.002 123.45 313.532 123.45C314.092 123.45 314.567 123.582 314.957 123.845C315.351 124.105 315.642 124.473 315.832 124.95C316.022 125.427 316.094 125.988 316.047 126.635H314.852V126.195C314.849 125.608 314.746 125.18 314.542 124.91C314.339 124.64 314.019 124.505 313.582 124.505C313.089 124.505 312.722 124.658 312.482 124.965C312.242 125.268 312.122 125.713 312.122 126.3C312.122 126.847 312.242 127.27 312.482 127.57C312.722 127.87 313.072 128.02 313.532 128.02C313.829 128.02 314.084 127.955 314.297 127.825C314.514 127.692 314.681 127.5 314.797 127.25L315.987 127.61C315.781 128.097 315.461 128.475 315.027 128.745C314.597 129.015 314.122 129.15 313.602 129.15ZM311.742 126.635V125.725H315.457V126.635H311.742ZM317.263 129V121.65H318.468V129H317.263ZM322.351 129.15C321.811 129.15 321.339 129.028 320.936 128.785C320.532 128.542 320.219 128.207 319.996 127.78C319.776 127.35 319.666 126.857 319.666 126.3C319.666 125.733 319.779 125.237 320.006 124.81C320.232 124.383 320.547 124.05 320.951 123.81C321.354 123.57 321.821 123.45 322.351 123.45C322.894 123.45 323.367 123.572 323.771 123.815C324.174 124.058 324.487 124.395 324.711 124.825C324.934 125.252 325.046 125.743 325.046 126.3C325.046 126.86 324.932 127.355 324.706 127.785C324.482 128.212 324.169 128.547 323.766 128.79C323.362 129.03 322.891 129.15 322.351 129.15ZM322.351 128.02C322.831 128.02 323.187 127.86 323.421 127.54C323.654 127.22 323.771 126.807 323.771 126.3C323.771 125.777 323.652 125.36 323.416 125.05C323.179 124.737 322.824 124.58 322.351 124.58C322.027 124.58 321.761 124.653 321.551 124.8C321.344 124.943 321.191 125.145 321.091 125.405C320.991 125.662 320.941 125.96 320.941 126.3C320.941 126.823 321.059 127.242 321.296 127.555C321.536 127.865 321.887 128.02 322.351 128.02ZM328.742 129.15C328.216 129.15 327.774 129.025 327.417 128.775C327.061 128.525 326.792 128.185 326.612 127.755C326.432 127.322 326.342 126.837 326.342 126.3C326.342 125.757 326.432 125.27 326.612 124.84C326.792 124.41 327.056 124.072 327.402 123.825C327.752 123.575 328.184 123.45 328.697 123.45C329.207 123.45 329.649 123.575 330.022 123.825C330.399 124.072 330.691 124.41 330.897 124.84C331.104 125.267 331.207 125.753 331.207 126.3C331.207 126.84 331.106 127.325 330.902 127.755C330.699 128.185 330.412 128.525 330.042 128.775C329.672 129.025 329.239 129.15 328.742 129.15ZM326.137 131.4V123.6H327.202V127.39H327.352V131.4H326.137ZM328.557 128.07C328.871 128.07 329.129 127.992 329.332 127.835C329.536 127.678 329.686 127.467 329.782 127.2C329.882 126.93 329.932 126.63 329.932 126.3C329.932 125.973 329.882 125.677 329.782 125.41C329.682 125.14 329.527 124.927 329.317 124.77C329.107 124.61 328.841 124.53 328.517 124.53C328.211 124.53 327.961 124.605 327.767 124.755C327.574 124.902 327.431 125.108 327.337 125.375C327.247 125.638 327.202 125.947 327.202 126.3C327.202 126.65 327.247 126.958 327.337 127.225C327.431 127.492 327.576 127.7 327.772 127.85C327.972 127.997 328.234 128.07 328.557 128.07ZM334.764 129.15C334.218 129.15 333.738 129.032 333.324 128.795C332.911 128.558 332.588 128.23 332.354 127.81C332.124 127.39 332.009 126.907 332.009 126.36C332.009 125.77 332.123 125.258 332.349 124.825C332.576 124.388 332.891 124.05 333.294 123.81C333.698 123.57 334.164 123.45 334.694 123.45C335.254 123.45 335.729 123.582 336.119 123.845C336.513 124.105 336.804 124.473 336.994 124.95C337.184 125.427 337.256 125.988 337.209 126.635H336.014V126.195C336.011 125.608 335.908 125.18 335.704 124.91C335.501 124.64 335.181 124.505 334.744 124.505C334.251 124.505 333.884 124.658 333.644 124.965C333.404 125.268 333.284 125.713 333.284 126.3C333.284 126.847 333.404 127.27 333.644 127.57C333.884 127.87 334.234 128.02 334.694 128.02C334.991 128.02 335.246 127.955 335.459 127.825C335.676 127.692 335.843 127.5 335.959 127.25L337.149 127.61C336.943 128.097 336.623 128.475 336.189 128.745C335.759 129.015 335.284 129.15 334.764 129.15ZM332.904 126.635V125.725H336.619V126.635H332.904ZM338.325 129V123.6H339.39V124.915L339.26 124.745C339.327 124.565 339.415 124.402 339.525 124.255C339.638 124.105 339.773 123.982 339.93 123.885C340.063 123.795 340.21 123.725 340.37 123.675C340.533 123.622 340.7 123.59 340.87 123.58C341.04 123.567 341.205 123.573 341.365 123.6V124.725C341.205 124.678 341.02 124.663 340.81 124.68C340.603 124.697 340.417 124.755 340.25 124.855C340.083 124.945 339.947 125.06 339.84 125.2C339.737 125.34 339.66 125.5 339.61 125.68C339.56 125.857 339.535 126.048 339.535 126.255V129H338.325Z" fill="#F5F3EF"/>
<path d="M11.23 130.905C10.84 130.452 10.5067 129.938 10.23 129.365C9.95333 128.795 9.74333 128.197 9.6 127.57C9.45667 126.943 9.39 126.32 9.4 125.7C9.39 125.08 9.45667 124.457 9.6 123.83C9.74333 123.2 9.95333 122.6 10.23 122.03C10.5067 121.46 10.84 120.948 11.23 120.495L12.12 121.155C11.72 121.638 11.4 122.127 11.16 122.62C10.9233 123.113 10.7533 123.617 10.65 124.13C10.5467 124.64 10.4933 125.163 10.49 125.7C10.4933 126.237 10.5467 126.762 10.65 127.275C10.7567 127.785 10.9283 128.288 11.165 128.785C11.4017 129.278 11.72 129.763 12.12 130.24L11.23 130.905ZM13.2313 129V121.8H16.0863C16.5729 121.8 16.9713 121.898 17.2813 122.095C17.5946 122.288 17.8263 122.537 17.9763 122.84C18.1296 123.143 18.2063 123.457 18.2063 123.78C18.2063 124.177 18.1113 124.513 17.9213 124.79C17.7346 125.067 17.4796 125.253 17.1563 125.35V125.1C17.6096 125.203 17.9529 125.418 18.1863 125.745C18.4229 126.072 18.5413 126.443 18.5413 126.86C18.5413 127.287 18.4596 127.66 18.2962 127.98C18.1329 128.3 17.8896 128.55 17.5663 128.73C17.2463 128.91 16.8496 129 16.3763 129H13.2313ZM14.4513 127.865H16.2263C16.4363 127.865 16.6246 127.823 16.7913 127.74C16.9579 127.653 17.0879 127.533 17.1813 127.38C17.2779 127.223 17.3263 127.038 17.3263 126.825C17.3263 126.632 17.2846 126.458 17.2013 126.305C17.1179 126.152 16.9963 126.03 16.8363 125.94C16.6763 125.847 16.4846 125.8 16.2613 125.8H14.4513V127.865ZM14.4513 124.675H16.0713C16.2446 124.675 16.3996 124.642 16.5363 124.575C16.6729 124.508 16.7813 124.41 16.8613 124.28C16.9413 124.15 16.9813 123.99 16.9813 123.8C16.9813 123.55 16.9013 123.342 16.7413 123.175C16.5813 123.008 16.3579 122.925 16.0713 122.925H14.4513V124.675ZM21.0498 129.15C20.6598 129.15 20.3298 129.077 20.0598 128.93C19.7898 128.78 19.5848 128.582 19.4448 128.335C19.3082 128.088 19.2398 127.817 19.2398 127.52C19.2398 127.26 19.2832 127.027 19.3698 126.82C19.4565 126.61 19.5898 126.43 19.7698 126.28C19.9498 126.127 20.1832 126.002 20.4698 125.905C20.6865 125.835 20.9398 125.772 21.2298 125.715C21.5232 125.658 21.8398 125.607 22.1798 125.56C22.5232 125.51 22.8815 125.457 23.2548 125.4L22.8248 125.645C22.8282 125.272 22.7448 124.997 22.5748 124.82C22.4048 124.643 22.1182 124.555 21.7148 124.555C21.4715 124.555 21.2365 124.612 21.0098 124.725C20.7832 124.838 20.6248 125.033 20.5348 125.31L19.4348 124.965C19.5682 124.508 19.8215 124.142 20.1948 123.865C20.5715 123.588 21.0782 123.45 21.7148 123.45C22.1948 123.45 22.6165 123.528 22.9798 123.685C23.3465 123.842 23.6182 124.098 23.7948 124.455C23.8915 124.645 23.9498 124.84 23.9698 125.04C23.9898 125.237 23.9998 125.452 23.9998 125.685V129H22.9448V127.83L23.1198 128.02C22.8765 128.41 22.5915 128.697 22.2648 128.88C21.9415 129.06 21.5365 129.15 21.0498 129.15ZM21.2898 128.19C21.5632 128.19 21.7965 128.142 21.9898 128.045C22.1832 127.948 22.3365 127.83 22.4498 127.69C22.5665 127.55 22.6448 127.418 22.6848 127.295C22.7482 127.142 22.7832 126.967 22.7898 126.77C22.7998 126.57 22.8048 126.408 22.8048 126.285L23.1748 126.395C22.8115 126.452 22.4998 126.502 22.2398 126.545C21.9798 126.588 21.7565 126.63 21.5698 126.67C21.3832 126.707 21.2182 126.748 21.0748 126.795C20.9348 126.845 20.8165 126.903 20.7198 126.97C20.6232 127.037 20.5482 127.113 20.4948 127.2C20.4448 127.287 20.4198 127.388 20.4198 127.505C20.4198 127.638 20.4532 127.757 20.5198 127.86C20.5865 127.96 20.6832 128.04 20.8098 128.1C20.9398 128.16 21.0998 128.19 21.2898 128.19ZM25.3016 129V123.6H26.3666V124.915L26.2366 124.745C26.3032 124.565 26.3916 124.402 26.5016 124.255C26.6149 124.105 26.7499 123.982 26.9066 123.885C27.0399 123.795 27.1866 123.725 27.3466 123.675C27.5099 123.622 27.6766 123.59 27.8466 123.58C28.0166 123.567 28.1816 123.573 28.3416 123.6V124.725C28.1816 124.678 27.9966 124.663 27.7866 124.68C27.5799 124.697 27.3932 124.755 27.2266 124.855C27.0599 124.945 26.9232 125.06 26.8166 125.2C26.7132 125.34 26.6366 125.5 26.5866 125.68C26.5366 125.857 26.5116 126.048 26.5116 126.255V129H25.3016ZM31.543 129.15C30.9864 129.15 30.5114 129.027 30.118 128.78C29.7247 128.53 29.423 128.19 29.213 127.76C29.0064 127.33 28.9014 126.843 28.898 126.3C28.9014 125.747 29.0097 125.257 29.223 124.83C29.4397 124.4 29.7464 124.063 30.143 123.82C30.5397 123.573 31.0114 123.45 31.558 123.45C32.1714 123.45 32.6897 123.605 33.113 123.915C33.5397 124.222 33.818 124.642 33.948 125.175L32.748 125.5C32.6547 125.21 32.4997 124.985 32.283 124.825C32.0664 124.662 31.8197 124.58 31.543 124.58C31.2297 124.58 30.9714 124.655 30.768 124.805C30.5647 124.952 30.4147 125.155 30.318 125.415C30.2214 125.675 30.173 125.97 30.173 126.3C30.173 126.813 30.288 127.228 30.518 127.545C30.748 127.862 31.0897 128.02 31.543 128.02C31.863 128.02 32.1147 127.947 32.298 127.8C32.4847 127.653 32.6247 127.442 32.718 127.165L33.948 127.44C33.7814 127.99 33.4897 128.413 33.073 128.71C32.6564 129.003 32.1464 129.15 31.543 129.15ZM37.2585 129.15C36.7118 129.15 36.2318 129.032 35.8185 128.795C35.4052 128.558 35.0818 128.23 34.8485 127.81C34.6185 127.39 34.5035 126.907 34.5035 126.36C34.5035 125.77 34.6168 125.258 34.8435 124.825C35.0702 124.388 35.3852 124.05 35.7885 123.81C36.1918 123.57 36.6585 123.45 37.1885 123.45C37.7485 123.45 38.2235 123.582 38.6135 123.845C39.0068 124.105 39.2985 124.473 39.4885 124.95C39.6785 125.427 39.7502 125.988 39.7035 126.635H38.5085V126.195C38.5052 125.608 38.4018 125.18 38.1985 124.91C37.9952 124.64 37.6752 124.505 37.2385 124.505C36.7452 124.505 36.3785 124.658 36.1385 124.965C35.8985 125.268 35.7785 125.713 35.7785 126.3C35.7785 126.847 35.8985 127.27 36.1385 127.57C36.3785 127.87 36.7285 128.02 37.1885 128.02C37.4852 128.02 37.7402 127.955 37.9535 127.825C38.1702 127.692 38.3368 127.5 38.4535 127.25L39.6435 127.61C39.4368 128.097 39.1168 128.475 38.6835 128.745C38.2535 129.015 37.7785 129.15 37.2585 129.15ZM35.3985 126.635V125.725H39.1135V126.635H35.3985ZM40.9191 129V121.65H42.1241V129H40.9191ZM46.0069 129.15C45.4669 129.15 44.9952 129.028 44.5919 128.785C44.1885 128.542 43.8752 128.207 43.6519 127.78C43.4319 127.35 43.3219 126.857 43.3219 126.3C43.3219 125.733 43.4352 125.237 43.6619 124.81C43.8885 124.383 44.2035 124.05 44.6069 123.81C45.0102 123.57 45.4769 123.45 46.0069 123.45C46.5502 123.45 47.0235 123.572 47.4269 123.815C47.8302 124.058 48.1435 124.395 48.3669 124.825C48.5902 125.252 48.7019 125.743 48.7019 126.3C48.7019 126.86 48.5885 127.355 48.3619 127.785C48.1385 128.212 47.8252 128.547 47.4219 128.79C47.0185 129.03 46.5469 129.15 46.0069 129.15ZM46.0069 128.02C46.4869 128.02 46.8435 127.86 47.0769 127.54C47.3102 127.22 47.4269 126.807 47.4269 126.3C47.4269 125.777 47.3085 125.36 47.0719 125.05C46.8352 124.737 46.4802 124.58 46.0069 124.58C45.6835 124.58 45.4169 124.653 45.2069 124.8C45.0002 124.943 44.8469 125.145 44.7469 125.405C44.6469 125.662 44.5969 125.96 44.5969 126.3C44.5969 126.823 44.7152 127.242 44.9519 127.555C45.1919 127.865 45.5435 128.02 46.0069 128.02ZM53.5385 129V126.4C53.5385 126.23 53.5268 126.042 53.5035 125.835C53.4802 125.628 53.4252 125.43 53.3385 125.24C53.2552 125.047 53.1285 124.888 52.9585 124.765C52.7918 124.642 52.5652 124.58 52.2785 124.58C52.1252 124.58 51.9735 124.605 51.8235 124.655C51.6735 124.705 51.5368 124.792 51.4135 124.915C51.2935 125.035 51.1968 125.202 51.1235 125.415C51.0502 125.625 51.0135 125.895 51.0135 126.225L50.2985 125.92C50.2985 125.46 50.3868 125.043 50.5635 124.67C50.7435 124.297 51.0068 124 51.3535 123.78C51.7002 123.557 52.1268 123.445 52.6335 123.445C53.0335 123.445 53.3635 123.512 53.6235 123.645C53.8835 123.778 54.0902 123.948 54.2435 124.155C54.3968 124.362 54.5102 124.582 54.5835 124.815C54.6568 125.048 54.7035 125.27 54.7235 125.48C54.7468 125.687 54.7585 125.855 54.7585 125.985V129H53.5385ZM49.7935 129V123.6H50.8685V125.275H51.0135V129H49.7935ZM57.5733 129.15C57.1833 129.15 56.8533 129.077 56.5833 128.93C56.3133 128.78 56.1083 128.582 55.9683 128.335C55.8316 128.088 55.7633 127.817 55.7633 127.52C55.7633 127.26 55.8066 127.027 55.8933 126.82C55.9799 126.61 56.1133 126.43 56.2933 126.28C56.4733 126.127 56.7066 126.002 56.9933 125.905C57.2099 125.835 57.4633 125.772 57.7533 125.715C58.0466 125.658 58.3633 125.607 58.7033 125.56C59.0466 125.51 59.4049 125.457 59.7783 125.4L59.3483 125.645C59.3516 125.272 59.2683 124.997 59.0983 124.82C58.9283 124.643 58.6416 124.555 58.2383 124.555C57.9949 124.555 57.7599 124.612 57.5333 124.725C57.3066 124.838 57.1483 125.033 57.0583 125.31L55.9583 124.965C56.0916 124.508 56.3449 124.142 56.7183 123.865C57.0949 123.588 57.6016 123.45 58.2383 123.45C58.7183 123.45 59.1399 123.528 59.5033 123.685C59.8699 123.842 60.1416 124.098 60.3183 124.455C60.4149 124.645 60.4733 124.84 60.4933 125.04C60.5133 125.237 60.5233 125.452 60.5233 125.685V129H59.4683V127.83L59.6433 128.02C59.3999 128.41 59.1149 128.697 58.7883 128.88C58.4649 129.06 58.0599 129.15 57.5733 129.15ZM57.8133 128.19C58.0866 128.19 58.3199 128.142 58.5133 128.045C58.7066 127.948 58.8599 127.83 58.9733 127.69C59.0899 127.55 59.1683 127.418 59.2083 127.295C59.2716 127.142 59.3066 126.967 59.3133 126.77C59.3233 126.57 59.3283 126.408 59.3283 126.285L59.6983 126.395C59.3349 126.452 59.0233 126.502 58.7633 126.545C58.5033 126.588 58.2799 126.63 58.0933 126.67C57.9066 126.707 57.7416 126.748 57.5983 126.795C57.4583 126.845 57.3399 126.903 57.2433 126.97C57.1466 127.037 57.0716 127.113 57.0183 127.2C56.9683 127.287 56.9433 127.388 56.9433 127.505C56.9433 127.638 56.9766 127.757 57.0433 127.86C57.1099 127.96 57.2066 128.04 57.3333 128.1C57.4633 128.16 57.6233 128.19 57.8133 128.19ZM61.725 130.275L61.795 129.755C61.9483 129.768 62.07 129.742 62.16 129.675C62.25 129.612 62.31 129.52 62.34 129.4C62.3733 129.283 62.3817 129.15 62.365 129H61.725V127.715H62.96V129.05C62.96 129.487 62.8567 129.817 62.65 130.04C62.4433 130.263 62.135 130.342 61.725 130.275ZM69.5291 129.15C69.0024 129.15 68.5274 129.058 68.1041 128.875C67.6841 128.692 67.3374 128.43 67.0641 128.09C66.7941 127.747 66.6224 127.34 66.5491 126.87L67.7991 126.68C67.9057 127.107 68.1241 127.437 68.4541 127.67C68.7874 127.903 69.1707 128.02 69.6041 128.02C69.8607 128.02 70.1024 127.98 70.3291 127.9C70.5557 127.82 70.7391 127.703 70.8791 127.55C71.0224 127.397 71.0941 127.208 71.0941 126.985C71.0941 126.885 71.0774 126.793 71.0441 126.71C71.0107 126.623 70.9607 126.547 70.8941 126.48C70.8307 126.413 70.7474 126.353 70.6441 126.3C70.5441 126.243 70.4274 126.195 70.2941 126.155L68.4341 125.605C68.2741 125.558 68.1007 125.497 67.9141 125.42C67.7307 125.34 67.5557 125.232 67.3891 125.095C67.2257 124.955 67.0907 124.778 66.9841 124.565C66.8807 124.348 66.8291 124.082 66.8291 123.765C66.8291 123.302 66.9457 122.913 67.1791 122.6C67.4157 122.283 67.7324 122.047 68.1291 121.89C68.5291 121.733 68.9724 121.657 69.4591 121.66C69.9524 121.663 70.3924 121.748 70.7791 121.915C71.1657 122.078 71.4891 122.317 71.7491 122.63C72.0091 122.943 72.1924 123.322 72.2991 123.765L71.0041 123.99C70.9507 123.737 70.8474 123.522 70.6941 123.345C70.5441 123.165 70.3591 123.028 70.1391 122.935C69.9224 122.842 69.6907 122.792 69.4441 122.785C69.2041 122.782 68.9807 122.818 68.7741 122.895C68.5707 122.968 68.4057 123.075 68.2791 123.215C68.1557 123.355 68.0941 123.518 68.0941 123.705C68.0941 123.882 68.1474 124.027 68.2541 124.14C68.3607 124.25 68.4924 124.338 68.6491 124.405C68.8091 124.468 68.9707 124.522 69.1341 124.565L70.4241 124.925C70.6007 124.972 70.7991 125.035 71.0191 125.115C71.2391 125.195 71.4507 125.307 71.6541 125.45C71.8574 125.593 72.0241 125.782 72.1541 126.015C72.2874 126.248 72.3541 126.545 72.3541 126.905C72.3541 127.278 72.2757 127.607 72.1191 127.89C71.9657 128.17 71.7574 128.403 71.4941 128.59C71.2307 128.777 70.9291 128.917 70.5891 129.01C70.2524 129.103 69.8991 129.15 69.5291 129.15ZM76.0313 129.15C75.5047 129.15 75.063 129.025 74.7063 128.775C74.3497 128.525 74.0813 128.185 73.9013 127.755C73.7213 127.322 73.6313 126.837 73.6313 126.3C73.6313 125.757 73.7213 125.27 73.9013 124.84C74.0813 124.41 74.3447 124.072 74.6913 123.825C75.0413 123.575 75.473 123.45 75.9863 123.45C76.4963 123.45 76.938 123.575 77.3113 123.825C77.688 124.072 77.9797 124.41 78.1863 124.84C78.393 125.267 78.4963 125.753 78.4963 126.3C78.4963 126.84 78.3947 127.325 78.1913 127.755C77.988 128.185 77.7013 128.525 77.3313 128.775C76.9613 129.025 76.528 129.15 76.0313 129.15ZM73.4263 131.4V123.6H74.4913V127.39H74.6413V131.4H73.4263ZM75.8463 128.07C76.1597 128.07 76.418 127.992 76.6213 127.835C76.8247 127.678 76.9747 127.467 77.0713 127.2C77.1713 126.93 77.2213 126.63 77.2213 126.3C77.2213 125.973 77.1713 125.677 77.0713 125.41C76.9713 125.14 76.8163 124.927 76.6063 124.77C76.3963 124.61 76.1297 124.53 75.8063 124.53C75.4997 124.53 75.2497 124.605 75.0563 124.755C74.863 124.902 74.7197 125.108 74.6263 125.375C74.5363 125.638 74.4913 125.947 74.4913 126.3C74.4913 126.65 74.5363 126.958 74.6263 127.225C74.7197 127.492 74.8647 127.7 75.0613 127.85C75.2613 127.997 75.523 128.07 75.8463 128.07ZM81.1084 129.15C80.7184 129.15 80.3884 129.077 80.1184 128.93C79.8484 128.78 79.6434 128.582 79.5034 128.335C79.3668 128.088 79.2984 127.817 79.2984 127.52C79.2984 127.26 79.3418 127.027 79.4284 126.82C79.5151 126.61 79.6484 126.43 79.8284 126.28C80.0084 126.127 80.2418 126.002 80.5284 125.905C80.7451 125.835 80.9984 125.772 81.2884 125.715C81.5818 125.658 81.8984 125.607 82.2384 125.56C82.5818 125.51 82.9401 125.457 83.3134 125.4L82.8834 125.645C82.8868 125.272 82.8034 124.997 82.6334 124.82C82.4634 124.643 82.1768 124.555 81.7734 124.555C81.5301 124.555 81.2951 124.612 81.0684 124.725C80.8418 124.838 80.6834 125.033 80.5934 125.31L79.4934 124.965C79.6268 124.508 79.8801 124.142 80.2534 123.865C80.6301 123.588 81.1368 123.45 81.7734 123.45C82.2534 123.45 82.6751 123.528 83.0384 123.685C83.4051 123.842 83.6768 124.098 83.8534 124.455C83.9501 124.645 84.0084 124.84 84.0284 125.04C84.0484 125.237 84.0584 125.452 84.0584 125.685V129H83.0034V127.83L83.1784 128.02C82.9351 128.41 82.6501 128.697 82.3234 128.88C82.0001 129.06 81.5951 129.15 81.1084 129.15ZM81.3484 128.19C81.6218 128.19 81.8551 128.142 82.0484 128.045C82.2418 127.948 82.3951 127.83 82.5084 127.69C82.6251 127.55 82.7034 127.418 82.7434 127.295C82.8068 127.142 82.8418 126.967 82.8484 126.77C82.8584 126.57 82.8634 126.408 82.8634 126.285L83.2334 126.395C82.8701 126.452 82.5584 126.502 82.2984 126.545C82.0384 126.588 81.8151 126.63 81.6284 126.67C81.4418 126.707 81.2768 126.748 81.1334 126.795C80.9934 126.845 80.8751 126.903 80.7784 126.97C80.6818 127.037 80.6068 127.113 80.5534 127.2C80.5034 127.287 80.4784 127.388 80.4784 127.505C80.4784 127.638 80.5118 127.757 80.5784 127.86C80.6451 127.96 80.7418 128.04 80.8684 128.1C80.9984 128.16 81.1584 128.19 81.3484 128.19ZM85.4602 122.78V121.675H86.6652V122.78H85.4602ZM85.4602 129V123.6H86.6652V129H85.4602ZM91.8979 129V126.4C91.8979 126.23 91.8862 126.042 91.8629 125.835C91.8396 125.628 91.7846 125.43 91.6979 125.24C91.6146 125.047 91.4879 124.888 91.3179 124.765C91.1512 124.642 90.9246 124.58 90.6379 124.58C90.4846 124.58 90.3329 124.605 90.1829 124.655C90.0329 124.705 89.8962 124.792 89.7729 124.915C89.6529 125.035 89.5562 125.202 89.4829 125.415C89.4096 125.625 89.3729 125.895 89.3729 126.225L88.6579 125.92C88.6579 125.46 88.7462 125.043 88.9229 124.67C89.1029 124.297 89.3662 124 89.7129 123.78C90.0596 123.557 90.4862 123.445 90.9929 123.445C91.3929 123.445 91.7229 123.512 91.9829 123.645C92.2429 123.778 92.4496 123.948 92.6029 124.155C92.7562 124.362 92.8696 124.582 92.9429 124.815C93.0162 125.048 93.0629 125.27 93.0829 125.48C93.1062 125.687 93.1179 125.855 93.1179 125.985V129H91.8979ZM88.1529 129V123.6H89.2279V125.275H89.3729V129H88.1529ZM94.8273 130.905L93.9373 130.24C94.3373 129.763 94.6557 129.278 94.8923 128.785C95.129 128.288 95.299 127.785 95.4023 127.275C95.509 126.762 95.564 126.237 95.5673 125.7C95.564 125.163 95.5107 124.64 95.4073 124.13C95.304 123.617 95.1323 123.113 94.8923 122.62C94.6557 122.127 94.3373 121.638 93.9373 121.155L94.8273 120.495C95.2173 120.948 95.5507 121.46 95.8273 122.03C96.104 122.6 96.314 123.2 96.4573 123.83C96.6007 124.457 96.6673 125.08 96.6573 125.7C96.6673 126.32 96.6007 126.943 96.4573 127.57C96.314 128.197 96.104 128.795 95.8273 129.365C95.5507 129.938 95.2173 130.452 94.8273 130.905Z" fill="#F5F3EF"/>
</svg>
